<?xml version="1.0" encoding="utf-8"?>
<!-- Generator: Adobe Illustrator 26.2.1, SVG Export Plug-In . SVG Version: 6.00 Build 0)  -->
<svg version="1.1" id="Ebene_1" xmlns="http://www.w3.org/2000/svg" xmlns:xlink="http://www.w3.org/1999/xlink" x="0px" y="0px"
	 viewBox="0 0 552.1 212.2" style="enable-background:new 0 0 552.1 212.2;" xml:space="preserve">
<style type="text/css">
	.st0{fill:#58739A;}
	.st1{fill:#4A5867;}
</style>
<g>
	<g>
		<path class="st0" d="M182.1,60.1c-3.2-3.2-30.6-30.6-33.8-33.8c-2.8-2.8-7.4-2.8-10.2,0c-2.8,2.8-2.8,7.4,0,10.2l4.1,4.1
			l-19.8,19.8c-8.4-8.4-10.1-10.1-17.1-17.1c-2.8-2.8-7.4-2.8-10.2,0c-2.8,2.8-2.8,7.4,0,10.2l7.9,7.9L36.4,128
			c-2.8,2.8-2.8,7.4,0,10.2L48.2,150l-33.5,33.5c-2.8,2.8-2.8,7.4,0,10.2c2.8,2.8,7.4,2.8,10.2,0l33.5-33.5L70.2,172
			c2.8,2.8,7.4,2.8,10.2,0l66.6-66.6l7.9,7.9c2.8,2.8,7.4,2.8,10.2,0c2.8-2.8,2.8-7.4,0-10.2c-7.1-7.1-8.8-8.8-17.1-17.1l19.8-19.8
			l4.1,4.1c2.8,2.8,7.4,2.8,10.2,0C185,67.5,185,62.9,182.1,60.1z M75.3,156.6l-23.6-23.6l9.6-9.6l6.1,6.1c2.8,2.8,7.4,2.8,10.2,0
			c2.8-2.8,2.8-7.4,0-10.2l-6.1-6.1l5.8-5.8l6.1,6.1c2.8,2.8,7.4,2.8,10.2,0c2.8-2.8,2.8-7.4,0-10.2l-6.1-6.1l5.8-5.8l6.1,6.1
			c2.8,2.8,7.4,2.8,10.2,0c2.8-2.8,2.8-7.4,0-10.2l-6.1-6.1l9.6-9.6c2.4,2.4,21.2,21.2,23.6,23.6L75.3,156.6z M137.8,75.7l-5.1-5.1
			l19.8-19.8l5.1,5.1L137.8,75.7z"/>
	</g>
</g>
<g>
	<path class="st1" d="M202.8,40.9h16.8l17.9,53.3c5.2,15.1,9.8,31.1,13.8,48.2c-1.4-10.3-2.5-19.7-3.2-28c-0.7-8.4-1-16.2-1-23.6
		V40.9h18.1v133.6h-16.9l-20.2-60.1c-1.8-5.6-3.6-11.3-5.2-17.2c-1.6-5.9-3.2-12.1-4.5-18.5c-0.1-0.8-0.3-1.8-0.6-2.9
		c-0.3-1.2-0.6-2.5-0.9-4c0.2,1.5,0.3,2.8,0.4,3.8c0.1,1.1,0.2,2,0.3,2.7l1,13.6l1,16.5c0.1,0.9,0.1,2,0.1,3.4c0,1.3,0,2.8,0,4.5
		l1,58.2h-17.7V40.9z"/>
	<path class="st1" d="M285.7,40.9h47.8v15.2h-29.8v42.3h26.5v15.2h-26.5v45.6h29.8v15.2h-47.8V40.9z"/>
	<path class="st1" d="M350.1,40.9h23.7c9.8,0,17.1,2.3,21.9,7c6.1,6.1,9.1,15.3,9.1,27.8c0,9.6-1.6,17.3-4.8,23.1
		s-7.8,9.4-13.7,10.8l24.6,65h-18.3l-24.5-65.4v65.4h-18V40.9z M368.1,100.1c7,0,11.9-1.6,14.8-4.8c2.9-3.2,4.3-8.7,4.3-16.3
		c0-4.2-0.3-7.7-0.9-10.6c-0.6-2.9-1.6-5.3-2.9-7.2c-1.3-1.8-3-3.2-5-4.1c-2-0.9-4.5-1.3-7.3-1.3h-3V100.1z"/>
	<path class="st1" d="M414.3,40.9H432l8,49.3l1.4,8.9l2.9,19.4c0.5,3.3,0.9,6.3,1.3,9c0.4,2.7,0.7,5.2,1,7.4l0.9,6.6
		c0.2-1.3,0.3-2.5,0.4-3.5c0.1-1,0.2-1.9,0.3-2.6l2.3-15.5l3-20.3c0.3-1.8,0.6-3.5,0.8-5.1s0.5-2.9,0.7-4.2l8.7-49.3h16.8
		l-26.2,133.6H440L414.3,40.9z"/>
	<path class="st1" d="M490.4,40.9h47.8v15.2h-29.8v42.3h26.5v15.2h-26.5v45.6h29.8v15.2h-47.8V40.9z"/>
</g>
</svg>
